<svg width="17" height="17" viewBox="0 0 17 17" fill="none" xmlns="http://www.w3.org/2000/svg">
<path d="M11.0901 0.209361C11.9062 0.238837 12.6933 0.144259 13.4746 0.272738C15.4006 0.589439 16.8611 2.29458 16.8636 4.24222C16.8671 7.08326 16.8676 9.92432 16.8635 12.7654C16.8608 14.6425 15.3438 16.3799 13.4725 16.6685C13.2593 16.7014 13.0482 16.7304 12.8317 16.7302C10.0002 16.7286 7.1687 16.7342 4.33721 16.7279C2.0999 16.7229 0.27768 14.8956 0.275622 12.664C0.273042 9.8658 0.27294 7.06763 0.275891 4.26947C0.278248 2.03462 2.09985 0.214621 4.33963 0.210486C6.579 0.206352 8.81838 0.20945 11.0901 0.209361ZM3.68474 14.9146C3.91232 14.9842 4.14357 15.0182 4.38319 15.018C7.16094 15.0158 9.9387 15.0216 12.7164 15.0154C14.1148 15.0123 15.1391 13.99 15.1424 12.5939C15.149 9.83853 15.1486 7.08315 15.1422 4.32781C15.139 2.94994 14.1106 1.92741 12.7336 1.92543C9.9559 1.92143 7.17815 1.92178 4.4004 1.92576C3.04047 1.9277 2.00023 2.95097 1.99687 4.30209C1.98997 7.07887 1.99212 9.85569 1.99729 12.6325C1.99927 13.6935 2.62108 14.5398 3.68474 14.9146Z" fill="white"/>
<path d="M7.32089 4.50441C9.61586 3.84683 11.8556 5.05858 12.5293 7.1467C13.3486 9.68602 11.7572 12.2615 9.09468 12.5852C6.36501 12.9171 4.4206 10.8447 4.41189 8.55576C4.40447 6.60689 5.49377 5.08523 7.32089 4.50441ZM6.18499 9.00723C6.51694 10.4415 7.9247 11.236 9.33882 10.7872C10.6972 10.3561 11.3892 8.83674 10.8311 7.51086C10.3509 6.36995 9.09203 5.78043 7.87131 6.12482C6.64669 6.47031 5.94995 7.62859 6.18499 9.00723Z" fill="white"/>
<path d="M11.9088 4.03857C12.1588 3.59203 12.5232 3.41416 12.9242 3.52173C13.3056 3.62402 13.5635 3.95635 13.565 4.34724C13.5664 4.73804 13.3161 5.06744 12.9269 5.17523C12.6083 5.26343 12.3216 5.17981 12.0991 4.9498C11.8602 4.7028 11.7718 4.40201 11.9088 4.03857Z" fill="white"/>
</svg>
