<svg width="10" height="17" viewBox="0 0 10 17" fill="none" xmlns="http://www.w3.org/2000/svg">
<path d="M0.696255 7.32874C0.696492 7.06609 0.709179 6.83411 0.693645 6.60402C0.676131 6.3446 0.778816 6.24607 1.03957 6.25102C1.63021 6.26223 2.22172 6.24025 2.81185 6.26082C3.11061 6.27124 3.20921 6.1401 3.21033 5.87531C3.2131 5.22394 3.21591 4.57256 3.22076 3.9212C3.23644 1.81992 4.68725 0.377723 6.7922 0.369806C7.48807 0.367189 8.1833 0.369331 8.87775 0.433073C9.11295 0.454662 9.21594 0.538811 9.2124 0.781972C9.20263 1.45426 9.20087 2.12688 9.21128 2.79914C9.21525 3.05527 9.10041 3.124 8.86598 3.11976C8.3914 3.11117 7.91633 3.11385 7.44174 3.12428C6.65929 3.14147 6.26168 3.53534 6.24248 4.32201C6.2294 4.85754 6.24957 5.39391 6.23448 5.92933C6.22745 6.17862 6.31837 6.26249 6.56357 6.25873C7.25978 6.24805 7.95625 6.25334 8.65261 6.25457C9.09936 6.25535 9.09377 6.25703 9.03683 6.69132C8.94285 7.40815 8.8487 8.1252 8.77371 8.84414C8.74547 9.11488 8.64525 9.23276 8.35899 9.22473C7.78969 9.20876 7.21907 9.23524 6.65009 9.21439C6.33754 9.20294 6.2299 9.29285 6.23192 9.61977C6.2453 11.7841 6.23868 13.9485 6.23799 16.1128C6.23785 16.5583 6.23675 16.559 5.78439 16.5592C5.02471 16.5596 4.26498 16.5533 3.50541 16.5621C3.2779 16.5647 3.20048 16.5032 3.20196 16.2572C3.21518 14.0509 3.21058 11.8445 3.21687 9.63818C3.21772 9.33877 3.11439 9.20115 2.78997 9.21257C2.22092 9.2326 1.6505 9.21049 1.08097 9.22174C0.803671 9.22723 0.67907 9.14011 0.691241 8.84137C0.711325 8.3484 0.69641 7.85402 0.696255 7.32874Z" fill="white"/>
</svg>
